<svg version="1" xmlns="http://www.w3.org/2000/svg" width="933.333" height="933.333" viewBox="0 0 700.000000 700.000000"><path d="M324.5 1.1c-71.8 5.4-138.6 31.8-194.5 77-27.4 22.1-49.8 46.3-69.3 75C28 201.1 9.3 251.9 1.8 313c-1.7 14-1.7 60.1.1 74.5C9 446.8 28.2 499.1 60.1 546c40.6 59.9 99.6 106.5 166.4 131.5 105.1 39.4 221.7 26.5 315.5-35C603.4 602.3 652.2 541 677.9 472c14.6-39.6 21.4-77.9 21.5-121.5 0-47-7.5-87.2-24.1-129C636.4 123.3 555.8 48.3 455 16.2 414.8 3.4 367.1-2.1 324.5 1.1zM317 164v33h44v-66h44v68.8l5.2 1.7c12.9 4.2 25.2 12.1 35.4 22.6 12 12.5 18.7 24.5 22.4 40.1 2.4 10 2.7 28 .6 37.9-3.1 14.6-10.9 29.4-21.4 40.9l-6.4 7 6.4 6.9c7.1 7.8 13.2 17.4 17.2 27.5 8.1 20.3 7.5 46.4-1.5 66.4-9.5 21.1-30.4 40.2-51.6 47.3l-6.3 2.1V569h-44v-66h-44v66h-44v-66h-43v-44h43V241h-43v-44h43v-66h44v33z"/><path d="M317 284.4V328h35.3c37.2 0 41.8-.4 50.6-4.9 7.2-3.7 14.8-11.7 18.8-19.8 3.2-6.5 3.7-8.6 4.1-16.2.9-19.1-7.7-33.8-24.8-42l-7.5-3.6-38.2-.3-38.3-.3v43.5zM317 415.5V459h36.5c34.1 0 37-.1 42.6-2 11.8-4 20.8-11.9 26.2-23 3-6.1 3.2-7.1 3.2-18s-.2-11.9-3.2-18.3c-3.8-7.9-11.4-16.3-18.1-20-9.7-5.3-13.6-5.7-51.9-5.7H317v43.5z"/></svg>