<?xml version="1.0" encoding="iso-8859-1"?>
<!-- Generator: Adobe Illustrator 21.0.0, SVG Export Plug-In . SVG Version: 6.00 Build 0)  -->
<svg version="1.1" id="Capa_1" xmlns="http://www.w3.org/2000/svg" xmlns:xlink="http://www.w3.org/1999/xlink" x="0px" y="0px"
	 viewBox="0 0 512 512" style="enable-background:new 0 0 512 512;" xml:space="preserve">
<g>
	<g transform="translate(0 1)">
		<path style="fill:#CFD8DC;" d="M503.782,79.461v392.098c0,12.689-7.68,23.04-17.067,23.04H25.6
			c-9.387,0-17.067-10.377-17.067-23.04V79.461H503.782z"/>
		<path style="fill:#F4F4F4;" d="M478.165,79.461v392.098c0,12.689-7.68,23.04-17.067,23.04H25.6
			c-9.387,0-17.067-10.377-17.067-23.04V79.461H478.165z"/>
		<path style="fill:#0377BC;" d="M503.782,29.473V75.8H0V29.473c0.59-9.034,8.334-15.914,17.374-15.437H486.4
			C495.444,13.554,503.192,20.435,503.782,29.473z"/>
		<path style="fill:#02A9F4;" d="M477.73,29.473V75.8H0V29.473c0.59-9.034,8.334-15.914,17.374-15.437h442.982
			C469.395,13.563,477.136,20.441,477.73,29.473z"/>
		<g>
			<path style="fill:#FFB301;" d="M184.576,138.264v50.347c-0.056,9.247-7.563,16.716-16.811,16.725H83.883v-83.883h83.883
				C177.03,121.5,184.529,128.999,184.576,138.264z"/>
			<path style="fill:#FFB301;" d="M92.279,121.47v83.883H67.106c-9.247-0.037-16.731-7.529-16.759-16.777V138.23
				c0.028-9.254,7.523-16.748,16.777-16.777L92.279,121.47z"/>
			<path style="fill:#FFB301;" d="M184.576,264.045v50.347c-0.047,9.265-7.546,16.764-16.811,16.811H83.883V247.32h83.883
				C177.013,247.329,184.52,254.798,184.576,264.045z"/>
			<path style="fill:#FFB301;" d="M92.279,247.32v83.891H67.106c-9.257-0.038-16.745-7.545-16.759-16.802v-50.347
				c0.047-9.234,7.526-16.705,16.759-16.742H92.279z"/>
			<path style="fill:#FFB301;" d="M184.576,389.912v50.347c-0.056,9.247-7.563,16.716-16.811,16.725H83.883v-83.883h83.883
				C177.03,373.148,184.529,380.647,184.576,389.912z"/>
		</g>
		<g>
			<path style="fill:#FEC108;" d="M158.976,138.264v50.347c-0.056,9.247-7.563,16.716-16.811,16.725H83.883v-83.883h58.283
				C151.43,121.5,158.929,128.999,158.976,138.264z"/>
			<path style="fill:#FEC108;" d="M158.976,264.045v50.347c-0.047,9.265-7.546,16.764-16.811,16.811H83.883V247.32h58.283
				C151.413,247.329,158.92,254.798,158.976,264.045z"/>
			<path style="fill:#FEC108;" d="M158.976,389.912v50.347c-0.056,9.247-7.563,16.716-16.811,16.725H83.883v-83.883h58.283
				C151.43,373.148,158.929,380.647,158.976,389.912z"/>
		</g>
		<path style="fill:#FFB301;" d="M92.279,373.127v83.891H67.106c-9.247-0.037-16.731-7.529-16.759-16.777v-50.347
			c0.023-9.257,7.519-16.757,16.777-16.785L92.279,373.127z"/>
	</g>
	<g>
		<path d="M486.4,0H25.6C11.462,0,0,11.462,0,25.6v460.8C0,500.539,11.462,512,25.6,512h460.8c14.138,0,25.6-11.461,25.6-25.6V25.6
			C512,11.462,500.539,0,486.4,0z M25.6,17.067h460.8c4.713,0,8.533,3.821,8.533,8.533v42.667H17.067V25.6
			C17.067,20.887,20.887,17.067,25.6,17.067z M486.4,494.933H25.6c-4.713,0-8.533-3.82-8.533-8.533V85.333h477.867V486.4
			C494.933,491.113,491.113,494.933,486.4,494.933z"/>
		<path d="M51.2,51.2h8.533c4.713,0,8.533-3.821,8.533-8.533s-3.821-8.533-8.533-8.533H51.2c-4.713,0-8.533,3.821-8.533,8.533
			S46.487,51.2,51.2,51.2z"/>
		<path d="M93.867,51.2h8.533c4.713,0,8.533-3.821,8.533-8.533s-3.821-8.533-8.533-8.533h-8.533c-4.713,0-8.533,3.821-8.533,8.533
			S89.154,51.2,93.867,51.2z"/>
		<path d="M136.533,51.2h8.533c4.713,0,8.533-3.821,8.533-8.533s-3.821-8.533-8.533-8.533h-8.533c-4.713,0-8.533,3.821-8.533,8.533
			S131.821,51.2,136.533,51.2z"/>
		<path d="M452.267,51.2h8.533c4.713,0,8.533-3.821,8.533-8.533s-3.82-8.533-8.533-8.533h-8.533c-4.713,0-8.533,3.821-8.533,8.533
			S447.554,51.2,452.267,51.2z"/>
		<path d="M170.667,110.933h-102.4c-14.138,0-25.6,11.462-25.6,25.6v51.2c0,14.139,11.462,25.6,25.6,25.6h102.4
			c14.139,0,25.6-11.462,25.6-25.6v-51.2C196.267,122.395,184.805,110.933,170.667,110.933z M59.733,187.733v-51.2
			c0-4.713,3.821-8.533,8.533-8.533h17.067v68.267H68.267C63.554,196.267,59.733,192.446,59.733,187.733z M179.2,187.733
			c0,4.713-3.821,8.533-8.533,8.533H102.4V128h68.267c4.713,0,8.533,3.821,8.533,8.533V187.733z"/>
		<path d="M153.6,153.6H128c-4.713,0-8.533,3.821-8.533,8.533c0,4.713,3.821,8.533,8.533,8.533h25.6
			c4.713,0,8.533-3.821,8.533-8.533C162.133,157.421,158.313,153.6,153.6,153.6z"/>
		<path d="M170.667,238.933h-102.4c-14.138,0-25.6,11.462-25.6,25.6v51.2c0,14.138,11.462,25.6,25.6,25.6h102.4
			c14.139,0,25.6-11.462,25.6-25.6v-51.2C196.267,250.395,184.805,238.933,170.667,238.933z M59.733,315.733v-51.2
			c0-4.713,3.821-8.533,8.533-8.533h17.067v68.267H68.267C63.554,324.267,59.733,320.446,59.733,315.733z M179.2,315.733
			c0,4.713-3.821,8.533-8.533,8.533H102.4V256h68.267c4.713,0,8.533,3.821,8.533,8.533V315.733z"/>
		<path d="M153.6,281.6H128c-4.713,0-8.533,3.821-8.533,8.533c0,4.713,3.821,8.533,8.533,8.533h25.6
			c4.713,0,8.533-3.821,8.533-8.533C162.133,285.421,158.313,281.6,153.6,281.6z"/>
		<path d="M170.667,366.933h-102.4c-14.138,0-25.6,11.462-25.6,25.6v51.2c0,14.138,11.462,25.6,25.6,25.6h102.4
			c14.139,0,25.6-11.462,25.6-25.6v-51.2C196.267,378.395,184.805,366.933,170.667,366.933z M59.733,443.733v-51.2
			c0-4.713,3.821-8.533,8.533-8.533h17.067v68.267H68.267C63.554,452.267,59.733,448.446,59.733,443.733z M179.2,443.733
			c0,4.713-3.821,8.533-8.533,8.533H102.4V384h68.267c4.713,0,8.533,3.82,8.533,8.533V443.733z"/>
		<path d="M153.6,409.6H128c-4.713,0-8.533,3.82-8.533,8.533s3.821,8.533,8.533,8.533h25.6c4.713,0,8.533-3.82,8.533-8.533
			S158.313,409.6,153.6,409.6z"/>
		<path d="M341.333,153.6H230.4c-4.713,0-8.533,3.821-8.533,8.533c0,4.713,3.82,8.533,8.533,8.533h110.933
			c4.713,0,8.533-3.821,8.533-8.533C349.867,157.421,346.046,153.6,341.333,153.6z"/>
		<path d="M341.333,281.6H230.4c-4.713,0-8.533,3.821-8.533,8.533c0,4.713,3.82,8.533,8.533,8.533h110.933
			c4.713,0,8.533-3.821,8.533-8.533C349.867,285.421,346.046,281.6,341.333,281.6z"/>
		<path d="M341.333,409.6H230.4c-4.713,0-8.533,3.82-8.533,8.533s3.82,8.533,8.533,8.533h110.933c4.713,0,8.533-3.82,8.533-8.533
			S346.046,409.6,341.333,409.6z"/>
		<path d="M437.7,130.5l-36.634,36.634L390.033,156.1c-3.348-3.234-8.671-3.188-11.962,0.104c-3.292,3.292-3.338,8.614-0.104,11.962
			l17.067,17.067c3.332,3.331,8.734,3.331,12.066,0l42.667-42.667c3.234-3.348,3.188-8.671-0.104-11.962
			C446.371,127.313,441.049,127.266,437.7,130.5z"/>
		<path d="M437.7,258.5l-36.634,36.634L390.033,284.1c-3.348-3.234-8.671-3.188-11.962,0.104c-3.292,3.292-3.338,8.614-0.104,11.962
			l17.067,17.067c3.332,3.331,8.734,3.331,12.066,0l42.667-42.667c3.234-3.348,3.188-8.671-0.104-11.962
			C446.371,255.313,441.049,255.266,437.7,258.5z"/>
		<path d="M437.7,386.5l-36.634,36.634L390.033,412.1c-3.348-3.234-8.671-3.188-11.962,0.104c-3.292,3.292-3.338,8.614-0.104,11.962
			l17.067,17.067c3.332,3.331,8.734,3.331,12.066,0l42.667-42.667c3.234-3.348,3.188-8.671-0.104-11.962
			C446.371,383.313,441.049,383.266,437.7,386.5z"/>
	</g>
</g>
<g>
</g>
<g>
</g>
<g>
</g>
<g>
</g>
<g>
</g>
<g>
</g>
<g>
</g>
<g>
</g>
<g>
</g>
<g>
</g>
<g>
</g>
<g>
</g>
<g>
</g>
<g>
</g>
<g>
</g>
</svg>
