<?xml version="1.0" encoding="iso-8859-1"?>
<!-- Generator: Adobe Illustrator 21.0.0, SVG Export Plug-In . SVG Version: 6.00 Build 0)  -->
<svg version="1.1" id="Capa_1" xmlns="http://www.w3.org/2000/svg" xmlns:xlink="http://www.w3.org/1999/xlink" x="0px" y="0px"
	 viewBox="0 0 512 512" style="enable-background:new 0 0 512 512;" xml:space="preserve">
<g>
	<g>
		<g>
			<path d="M486.4,0H25.6C11.461,0,0,11.461,0,25.6v460.8C0,500.539,11.461,512,25.6,512h460.8c14.138,0,25.6-11.461,25.6-25.6V25.6
				C512,11.461,500.539,0,486.4,0z M494.933,486.4c0,4.713-3.82,8.533-8.533,8.533H25.6c-4.713,0-8.533-3.82-8.533-8.533V85.333
				h477.867V486.4z M494.933,68.267H17.067V25.6c0-4.713,3.82-8.533,8.533-8.533h460.8c4.713,0,8.533,3.82,8.533,8.533V68.267z"/>
			<path d="M59.733,34.133H51.2c-4.713,0-8.533,3.82-8.533,8.533S46.487,51.2,51.2,51.2h8.533c4.713,0,8.533-3.82,8.533-8.533
				S64.446,34.133,59.733,34.133z"/>
			<path d="M102.4,34.133h-8.533c-4.713,0-8.533,3.82-8.533,8.533s3.821,8.533,8.533,8.533h8.533c4.713,0,8.533-3.82,8.533-8.533
				S107.113,34.133,102.4,34.133z"/>
			<path d="M145.067,34.133h-8.533c-4.713,0-8.533,3.82-8.533,8.533s3.82,8.533,8.533,8.533h8.533c4.713,0,8.533-3.82,8.533-8.533
				S149.779,34.133,145.067,34.133z"/>
			<path d="M460.8,34.133h-8.533c-4.713,0-8.533,3.82-8.533,8.533s3.821,8.533,8.533,8.533h8.533c4.713,0,8.533-3.82,8.533-8.533
				S465.513,34.133,460.8,34.133z"/>
			<path d="M68.267,213.333h102.4c14.138,0,25.6-11.462,25.6-25.6v-51.2c0-14.138-11.461-25.6-25.6-25.6h-102.4
				c-14.138,0-25.6,11.461-25.6,25.6v51.2C42.667,201.872,54.128,213.333,68.267,213.333z M102.4,128h68.267
				c4.713,0,8.533,3.82,8.533,8.533v51.2c0,4.713-3.82,8.533-8.533,8.533H102.4V128z M59.733,136.533
				c0-4.713,3.82-8.533,8.533-8.533h17.067v68.267H68.267c-4.713,0-8.533-3.82-8.533-8.533V136.533z"/>
			<path d="M153.6,153.6H128c-4.713,0-8.533,3.82-8.533,8.533s3.82,8.533,8.533,8.533h25.6c4.713,0,8.533-3.82,8.533-8.533
				S158.313,153.6,153.6,153.6z"/>
			<path d="M68.267,341.333h102.4c14.138,0,25.6-11.462,25.6-25.6v-51.2c0-14.138-11.461-25.6-25.6-25.6h-102.4
				c-14.138,0-25.6,11.461-25.6,25.6v51.2C42.667,329.872,54.128,341.333,68.267,341.333z M102.4,256h68.267
				c4.713,0,8.533,3.82,8.533,8.533v51.2c0,4.713-3.82,8.533-8.533,8.533H102.4V256z M59.733,264.533
				c0-4.713,3.82-8.533,8.533-8.533h17.067v68.267H68.267c-4.713,0-8.533-3.82-8.533-8.533V264.533z"/>
			<path d="M153.6,281.6H128c-4.713,0-8.533,3.82-8.533,8.533s3.82,8.533,8.533,8.533h25.6c4.713,0,8.533-3.82,8.533-8.533
				S158.313,281.6,153.6,281.6z"/>
			<path d="M68.267,469.333h102.4c14.138,0,25.6-11.462,25.6-25.6v-51.2c0-14.138-11.461-25.6-25.6-25.6h-102.4
				c-14.138,0-25.6,11.462-25.6,25.6v51.2C42.667,457.872,54.128,469.333,68.267,469.333z M102.4,384h68.267
				c4.713,0,8.533,3.821,8.533,8.533v51.2c0,4.713-3.82,8.533-8.533,8.533H102.4V384z M59.733,392.533
				c0-4.713,3.82-8.533,8.533-8.533h17.067v68.267H68.267c-4.713,0-8.533-3.82-8.533-8.533V392.533z"/>
			<path d="M153.6,409.6H128c-4.713,0-8.533,3.82-8.533,8.533s3.82,8.533,8.533,8.533h25.6c4.713,0,8.533-3.82,8.533-8.533
				S158.313,409.6,153.6,409.6z"/>
			<path d="M230.4,170.667h110.933c4.713,0,8.533-3.82,8.533-8.533s-3.82-8.533-8.533-8.533H230.4c-4.713,0-8.533,3.82-8.533,8.533
				S225.687,170.667,230.4,170.667z"/>
			<path d="M230.4,298.667h110.933c4.713,0,8.533-3.82,8.533-8.533s-3.82-8.533-8.533-8.533H230.4c-4.713,0-8.533,3.82-8.533,8.533
				S225.687,298.667,230.4,298.667z"/>
			<path d="M230.4,426.667h110.933c4.713,0,8.533-3.82,8.533-8.533s-3.82-8.533-8.533-8.533H230.4c-4.713,0-8.533,3.82-8.533,8.533
				S225.687,426.667,230.4,426.667z"/>
			<path d="M395.034,185.233c3.332,3.331,8.734,3.331,12.066,0l42.667-42.667c3.234-3.348,3.188-8.671-0.104-11.962
				c-3.292-3.292-8.614-3.338-11.962-0.104l-36.634,36.634L390.033,156.1c-3.348-3.234-8.671-3.188-11.962,0.104
				c-3.292,3.292-3.338,8.614-0.104,11.962L395.034,185.233z"/>
			<path d="M395.034,313.233c3.332,3.331,8.734,3.331,12.066,0l42.667-42.667c3.234-3.348,3.188-8.671-0.104-11.962
				c-3.292-3.292-8.614-3.338-11.962-0.104l-36.634,36.634L390.033,284.1c-3.348-3.234-8.671-3.188-11.962,0.104
				c-3.292,3.292-3.338,8.614-0.104,11.962L395.034,313.233z"/>
			<path d="M395.034,441.233c3.332,3.331,8.734,3.331,12.066,0l42.667-42.667c3.234-3.348,3.188-8.671-0.104-11.962
				c-3.292-3.292-8.614-3.338-11.962-0.104l-36.634,36.634L390.033,412.1c-3.348-3.234-8.671-3.188-11.962,0.104
				c-3.292,3.292-3.338,8.614-0.104,11.962L395.034,441.233z"/>
		</g>
	</g>
</g>
<g>
</g>
<g>
</g>
<g>
</g>
<g>
</g>
<g>
</g>
<g>
</g>
<g>
</g>
<g>
</g>
<g>
</g>
<g>
</g>
<g>
</g>
<g>
</g>
<g>
</g>
<g>
</g>
<g>
</g>
</svg>
