<?xml version="1.0" encoding="iso-8859-1"?>
<!-- Generator: Adobe Illustrator 19.0.0, SVG Export Plug-In . SVG Version: 6.00 Build 0)  -->
<svg version="1.1" id="Capa_1" xmlns="http://www.w3.org/2000/svg" xmlns:xlink="http://www.w3.org/1999/xlink" x="0px" y="0px"
	 viewBox="0 0 511.982 511.982" style="enable-background:new 0 0 511.982 511.982;" xml:space="preserve">
<polygon style="fill:#CCD1D9;" points="487.598,423.991 503.598,479.991 183.598,479.991 271.598,375.991 295.598,391.991 
	375.598,311.991 "/>
<polygon style="fill:#AAB2BD;" points="487.598,423.991 375.598,311.991 359.598,327.991 463.598,431.991 475.982,479.991 
	503.598,479.991 "/>
<g>
	<path style="fill:#EDAB37;" d="M443.598,71.991c6.56,0,12,5.36,12,12s-5.44,12-12,12h-20v-24h8H443.598z"/>
	<path style="fill:#EDAB37;" d="M447.598,95.991c8.808,0,16,7.12,16,16s-7.192,16-16,16h-16h-8v-32h20H447.598z"/>
</g>
<path style="fill:#FFCE54;" d="M447.598,127.991c8.808,0,16-7.12,16-16s-7.192-16-16-16h-4c6.56,0,12-5.36,12-12s-5.44-12-12-12h-12
	h-8v24v32h8H447.598z M503.598,99.991c0,27.6-16.4,51.28-40,61.92c-8.552,3.92-18,6.08-28,6.08s-19.44-2.16-28-6
	c-23.592-10.64-40-34.4-40-62c0-37.6,30.408-68,68-68C473.126,31.991,503.598,62.391,503.598,99.991z"/>
<path style="fill:#F6BB42;" d="M435.598,31.991c-5.52,0-10.864,0.728-16.016,1.968c29.816,7.192,52.016,33.96,52.016,66.032
	c0,27.6-16.4,51.28-40,61.92c-3.832,1.76-7.864,3.104-12.024,4.112c5.144,1.248,10.488,1.968,16.024,1.968c10,0,19.448-2.16,28-6.08
	c23.6-10.64,40-34.32,40-61.92C503.598,62.391,473.126,31.991,435.598,31.991z"/>
<g>
	<path style="fill:#EDAB37;" d="M463.598,161.911c-8.552,3.92-18,6.08-28,6.08s-19.44-2.16-28-6c-23.592-10.64-40-34.4-40-62v32
		c0,27.52,16.408,51.28,40,62c8.56,3.84,18,6,28,6s19.448-2.16,28-6.08c23.6-10.64,40-34.4,40-61.92v-32
		C503.598,127.591,487.198,151.271,463.598,161.911z"/>
	<path style="fill:#EDAB37;" d="M504.006,291.991v24c0,15.44-12.56,28-28,28c-15.448,0-28-12.56-28-28v-24c0,15.44,12.552,28,28,28
		C491.446,319.991,504.006,307.431,504.006,291.991z"/>
</g>
<g>
	<path style="fill:#FFCE54;" d="M504.006,291.991c0,15.44-12.56,28-28,28c-15.448,0-28-12.56-28-28s12.552-28,28-28
		C491.446,263.991,504.006,276.551,504.006,291.991z"/>
	<circle style="fill:#FFCE54;" cx="403.982" cy="251.991" r="20"/>
</g>
<path style="fill:#CCD1D9;" d="M312.486,307.111l-90.48-90.48l-22.64-22.64l-90.488-90.48c0,0,62.96,24.16,112.72,68.232
	c4,3.52,7.92,7.2,11.68,10.96c3.768,3.76,7.448,7.68,10.96,11.68C288.318,244.151,312.486,307.111,312.486,307.111z"/>
<g>
	<path style="fill:#965353;" d="M261.598,177.031l-17.36,17.36c-3.512-4-7.192-7.92-10.96-11.68c-3.76-3.76-7.68-7.44-11.68-10.96
		l17.36-17.36L261.598,177.031z"/>
	<path style="fill:#965353;" d="M35.278,403.351c-6.232,6.24-16.32,6.24-22.64,0c-6.232-6.32-6.232-16.4,0-22.64l186.728-186.72
		l22.64,22.64L35.278,403.351z"/>
</g>
<path d="M12.67,388.679c-2.048,0-4.096-0.784-5.656-2.344c-3.128-3.128-3.128-8.184,0-11.312l186.68-186.672
	c3.128-3.128,8.184-3.128,11.312,0s3.128,8.184,0,11.312L18.326,386.335C16.766,387.895,14.718,388.679,12.67,388.679z"/>
<path d="M35.302,411.311c-2.048,0-4.096-0.784-5.656-2.344c-3.128-3.128-3.128-8.184,0-11.312l186.672-186.68
	c3.128-3.128,8.184-3.128,11.312,0s3.128,8.184,0,11.312L40.958,408.967C39.398,410.527,37.35,411.311,35.302,411.311z"/>
<path d="M23.99,415.983c-6.152,0-12.296-2.336-16.976-7.008c-9.352-9.376-9.352-24.6,0-33.952c3.128-3.128,8.184-3.128,11.312,0
	s3.128,8.184,0,11.312c-3.12,3.12-3.12,8.192,0.008,11.32c3.12,3.112,8.192,3.12,11.312-0.008c3.128-3.112,8.192-3.12,11.32,0.008
	c3.12,3.136,3.12,8.192-0.008,11.32C36.278,413.647,30.134,415.983,23.99,415.983z"/>
<path d="M312.486,315.143c-2.048,0-4.096-0.784-5.656-2.344L103.182,109.151c-3.128-3.128-3.128-8.184,0-11.312
	s8.184-3.128,11.312,0l203.648,203.648c3.128,3.128,3.128,8.184,0,11.312C316.574,314.359,314.526,315.143,312.486,315.143z"/>
<path d="M312.486,315.143c-3.208,0-6.24-1.944-7.472-5.128c-0.272-0.72-28.312-72.6-77.384-121.664
	c-49.064-49.064-120.944-77.12-121.664-77.392c-4.128-1.584-6.176-6.216-4.584-10.336c1.584-4.128,6.232-6.168,10.336-4.592
	c3.064,1.176,75.712,29.488,127.224,81.008c51.52,51.52,79.832,124.168,81.008,127.224c1.584,4.128-0.48,8.752-4.592,10.336
	C314.414,314.967,313.446,315.143,312.486,315.143z"/>
<path d="M221.622,179.735c-2.048,0-4.096-0.784-5.656-2.344c-3.128-3.128-3.128-8.184,0-11.312l17.328-17.328
	c3.128-3.128,8.184-3.128,11.312,0s3.128,8.184,0,11.312l-17.328,17.328C225.718,178.951,223.67,179.735,221.622,179.735z"/>
<path d="M261.574,185.039c-2.048,0-4.096-0.784-5.656-2.344l-22.624-22.632c-3.128-3.128-3.128-8.192,0-11.312
	c3.128-3.128,8.184-3.128,11.312,0l22.624,22.632c3.128,3.128,3.128,8.192,0,11.312C265.67,184.255,263.622,185.039,261.574,185.039
	z"/>
<path d="M244.246,202.367c-2.048,0-4.096-0.784-5.656-2.344c-3.128-3.128-3.128-8.184,0-11.312l17.328-17.328
	c3.128-3.128,8.184-3.128,11.312,0s3.128,8.184,0,11.312l-17.328,17.328C248.342,201.583,246.294,202.367,244.246,202.367z"/>
<path d="M183.55,487.991c-1.824,0-3.656-0.624-5.16-1.888c-3.376-2.856-3.8-7.904-0.944-11.272l88-104
	c2.856-3.384,7.896-3.792,11.272-0.944c3.376,2.856,3.8,7.904,0.944,11.272l-88,104C188.086,487.031,185.822,487.991,183.55,487.991
	z"/>
<path d="M295.55,399.991c-1.52,0-3.064-0.44-4.432-1.344l-24-16c-3.68-2.456-4.672-7.416-2.216-11.096
	c2.448-3.672,7.4-4.664,11.096-2.216l24,16c3.68,2.456,4.672,7.416,2.216,11.096C300.678,398.743,298.142,399.991,295.55,399.991z"
	/>
<path d="M295.558,399.991c-2.048,0-4.096-0.784-5.656-2.344c-3.128-3.128-3.128-8.184,0-11.312l80-80
	c3.128-3.128,8.184-3.128,11.312,0s3.128,8.184,0,11.312l-80,80C299.654,399.207,297.606,399.991,295.558,399.991z"/>
<path d="M487.558,431.991c-2.048,0-4.096-0.784-5.656-2.344l-112-112c-3.128-3.128-3.128-8.184,0-11.312s8.184-3.128,11.312,0
	l112,112c3.128,3.128,3.128,8.184,0,11.312C491.654,431.207,489.606,431.991,487.558,431.991z"/>
<path d="M503.55,487.991c-3.48,0-6.68-2.288-7.688-5.808l-16-56c-1.208-4.24,1.248-8.672,5.504-9.888
	c4.216-1.16,8.672,1.24,9.888,5.504l16,56c1.208,4.24-1.248,8.672-5.504,9.888C505.022,487.887,504.286,487.991,503.55,487.991z"/>
<path d="M343.558,311.991c-4.424,0-8-3.576-8-8v-48c0-4.416,3.576-8,8-8s8,3.584,8,8v48
	C351.558,308.415,347.982,311.991,343.558,311.991z"/>
<path d="M303.558,343.991h-48c-4.424,0-8-3.576-8-8s3.576-8,8-8h48c4.424,0,8,3.576,8,8S307.982,343.991,303.558,343.991z"/>
<path d="M443.558,103.991c-4.424,0-8-3.584-8-8s3.576-8,8-8c2.2,0,4-1.792,4-4s-1.8-4-4-4c-4.424,0-8-3.584-8-8s3.576-8,8-8
	c11.032,0,20,8.976,20,20S454.59,103.991,443.558,103.991z"/>
<path d="M447.558,135.991c-4.424,0-8-3.584-8-8s3.576-8,8-8c4.416,0,8-3.592,8-8s-3.584-8-8-8c-4.424,0-8-3.584-8-8s3.576-8,8-8
	c13.232,0,24,10.768,24,24S460.798,135.991,447.558,135.991z"/>
<path d="M447.558,103.991h-24c-4.424,0-8-3.584-8-8s3.576-8,8-8h24c4.424,0,8,3.584,8,8S451.982,103.991,447.558,103.991z"/>
<path d="M447.558,135.991h-32c-4.424,0-8-3.584-8-8s3.576-8,8-8h32c4.424,0,8,3.584,8,8S451.982,135.991,447.558,135.991z"/>
<path d="M443.558,79.991h-28c-4.424,0-8-3.584-8-8s3.576-8,8-8h28c4.424,0,8,3.584,8,8S447.982,79.991,443.558,79.991z"/>
<path d="M423.558,135.991c-4.424,0-8-3.584-8-8v-56c0-4.416,3.576-8,8-8s8,3.584,8,8v56
	C431.558,132.407,427.982,135.991,423.558,135.991z"/>
<path d="M431.558,79.991c-4.424,0-8-3.584-8-8v-8c0-4.416,3.576-8,8-8s8,3.584,8,8v8C439.558,76.407,435.982,79.991,431.558,79.991z
	"/>
<path d="M431.558,143.991c-4.424,0-8-3.584-8-8v-8c0-4.416,3.576-8,8-8s8,3.584,8,8v8
	C439.558,140.407,435.982,143.991,431.558,143.991z"/>
<path d="M435.558,175.991c-41.904,0-76-34.096-76-76s34.096-76,76-76s76,34.096,76,76S477.47,175.991,435.558,175.991z
	 M435.558,39.991c-33.088,0-60,26.912-60,60s26.912,60,60,60s60-26.912,60-60S468.646,39.991,435.558,39.991z"/>
<path d="M435.558,207.991c-41.904,0-76-34.096-76-76c0-4.416,3.576-8,8-8s8,3.584,8,8c0,33.088,26.912,60,60,60s60-26.912,60-60
	c0-4.416,3.576-8,8-8s8,3.584,8,8C511.558,173.895,477.47,207.991,435.558,207.991z"/>
<path d="M367.558,139.991c-4.424,0-8-3.584-8-8v-32c0-4.416,3.576-8,8-8s8,3.584,8,8v32
	C375.558,136.407,371.982,139.991,367.558,139.991z"/>
<path d="M503.558,139.991c-4.424,0-8-3.584-8-8v-32c0-4.416,3.576-8,8-8s8,3.584,8,8v32
	C511.558,136.407,507.982,139.991,503.558,139.991z"/>
<path d="M463.558,201.967c-4.424,0-8-3.584-8-8v-32c0-4.416,3.576-8,8-8s8,3.584,8,8v32
	C471.558,198.383,467.982,201.967,463.558,201.967z"/>
<path d="M407.558,201.967c-4.424,0-8-3.584-8-8v-31.992c0-4.416,3.576-8,8-8s8,3.584,8,8v31.992
	C415.558,198.383,411.982,201.967,407.558,201.967z"/>
<path d="M475.982,327.991c-19.848,0-36-16.152-36-36s16.152-36,36-36s36,16.152,36,36S495.83,327.991,475.982,327.991z
	 M475.982,271.991c-11.032,0-20,8.968-20,20s8.968,20,20,20s20-8.968,20-20S487.014,271.991,475.982,271.991z"/>
<path d="M475.982,351.991c-19.848,0-36-16.152-36-36c0-4.424,3.576-8,8-8s8,3.576,8,8c0,11.032,8.968,20,20,20s20-8.968,20-20
	c0-4.424,3.576-8,8-8s8,3.576,8,8C511.982,335.839,495.83,351.991,475.982,351.991z"/>
<path d="M447.982,323.991c-4.424,0-8-3.576-8-8v-24c0-4.424,3.576-8,8-8s8,3.576,8,8v24
	C455.982,320.415,452.406,323.991,447.982,323.991z"/>
<path d="M503.982,323.991c-4.424,0-8-3.576-8-8v-24c0-4.424,3.576-8,8-8s8,3.576,8,8v24
	C511.982,320.415,508.406,323.991,503.982,323.991z"/>
<path d="M403.982,279.991c-15.44,0-28-12.56-28-28s12.56-28,28-28s28,12.56,28,28S419.422,279.991,403.982,279.991z
	 M403.982,239.991c-6.616,0-12,5.384-12,12s5.384,12,12,12s12-5.384,12-12S410.598,239.991,403.982,239.991z"/>
<path d="M503.558,487.991h-320c-4.424,0-8-3.576-8-8s3.576-8,8-8h320c4.424,0,8,3.576,8,8S507.982,487.991,503.558,487.991z"/>
<g>
</g>
<g>
</g>
<g>
</g>
<g>
</g>
<g>
</g>
<g>
</g>
<g>
</g>
<g>
</g>
<g>
</g>
<g>
</g>
<g>
</g>
<g>
</g>
<g>
</g>
<g>
</g>
<g>
</g>
</svg>
