<?xml version="1.0" encoding="iso-8859-1"?>
<!-- Generator: Adobe Illustrator 19.0.0, SVG Export Plug-In . SVG Version: 6.00 Build 0)  -->
<svg version="1.1" id="Capa_1" xmlns="http://www.w3.org/2000/svg" xmlns:xlink="http://www.w3.org/1999/xlink" x="0px" y="0px"
	 viewBox="0 0 511.982 511.982" style="enable-background:new 0 0 511.982 511.982;" xml:space="preserve">
<g>
	<g>
		<path d="M205.006,188.351c-3.128-3.128-8.184-3.128-11.312,0L7.014,375.023c-3.128,3.128-3.128,8.184,0,11.312
			c1.56,1.56,3.608,2.344,5.656,2.344c2.048,0,4.096-0.784,5.656-2.344l186.68-186.672
			C208.134,196.535,208.134,191.479,205.006,188.351z"/>
	</g>
</g>
<g>
	<g>
		<path d="M227.63,210.975c-3.128-3.128-8.184-3.128-11.312,0L29.646,397.655c-3.128,3.128-3.128,8.184,0,11.312
			c1.56,1.56,3.608,2.344,5.656,2.344c2.048,0,4.096-0.784,5.656-2.344l186.672-186.68
			C230.758,219.159,230.758,214.103,227.63,210.975z"/>
	</g>
</g>
<g>
	<g>
		<path d="M40.966,397.655c-3.128-3.128-8.192-3.12-11.32-0.008c-3.12,3.128-8.192,3.12-11.312,0.008
			c-3.128-3.128-3.128-8.2-0.008-11.32c3.128-3.128,3.128-8.184,0-11.312s-8.184-3.128-11.312,0c-9.352,9.352-9.352,24.576,0,33.952
			c4.68,4.672,10.824,7.008,16.976,7.008c6.144,0,12.288-2.336,16.968-7.008C44.086,405.847,44.086,400.791,40.966,397.655z"/>
	</g>
</g>
<g>
	<g>
		<path d="M318.142,301.487L114.494,97.839c-3.128-3.128-8.184-3.128-11.312,0s-3.128,8.184,0,11.312L306.83,312.799
			c1.56,1.56,3.608,2.344,5.656,2.344c2.04,0,4.088-0.784,5.656-2.344C321.27,309.671,321.27,304.615,318.142,301.487z"/>
	</g>
</g>
<g>
	<g>
		<path d="M319.95,304.263c-1.176-3.056-29.488-75.704-81.008-127.224c-51.512-51.52-124.16-79.832-127.224-81.008
			c-4.104-1.576-8.752,0.464-10.336,4.592c-1.592,4.12,0.456,8.752,4.584,10.336c0.72,0.272,72.6,28.328,121.664,77.392
			c49.072,49.064,77.112,120.944,77.384,121.664c1.232,3.184,4.264,5.128,7.472,5.128c0.96,0,1.928-0.176,2.872-0.544
			C319.47,313.015,321.534,308.391,319.95,304.263z"/>
	</g>
</g>
<g>
	<g>
		<path d="M244.606,148.751c-3.128-3.128-8.184-3.128-11.312,0l-17.328,17.328c-3.128,3.128-3.128,8.184,0,11.312
			c1.56,1.56,3.608,2.344,5.656,2.344c2.048,0,4.096-0.784,5.656-2.344l17.328-17.328
			C247.734,156.935,247.734,151.879,244.606,148.751z"/>
	</g>
</g>
<g>
	<g>
		<path d="M267.23,171.383l-22.624-22.632c-3.128-3.128-8.184-3.128-11.312,0c-3.128,3.12-3.128,8.184,0,11.312l22.624,22.632
			c1.56,1.56,3.608,2.344,5.656,2.344c2.048,0,4.096-0.784,5.656-2.344C270.358,179.575,270.358,174.511,267.23,171.383z"/>
	</g>
</g>
<g>
	<g>
		<path d="M267.23,171.383c-3.128-3.128-8.184-3.128-11.312,0l-17.328,17.328c-3.128,3.128-3.128,8.184,0,11.312
			c1.56,1.56,3.608,2.344,5.656,2.344c2.048,0,4.096-0.784,5.656-2.344l17.328-17.328
			C270.358,179.567,270.358,174.511,267.23,171.383z"/>
	</g>
</g>
<g>
	<g>
		<path d="M276.718,369.887c-3.376-2.848-8.416-2.44-11.272,0.944l-88,104c-2.856,3.368-2.432,8.416,0.944,11.272
			c1.504,1.264,3.336,1.888,5.16,1.888c2.272,0,4.536-0.96,6.112-2.832l88-104C280.518,377.791,280.094,372.743,276.718,369.887z"/>
	</g>
</g>
<g>
	<g>
		<path d="M299.998,385.335l-24-16c-3.696-2.448-8.648-1.456-11.096,2.216c-2.456,3.68-1.464,8.64,2.216,11.096l24,16
			c1.368,0.904,2.912,1.344,4.432,1.344c2.592,0,5.128-1.248,6.664-3.56C304.67,392.751,303.678,387.791,299.998,385.335z"/>
	</g>
</g>
<g>
	<g>
		<path d="M381.214,306.335c-3.128-3.128-8.184-3.128-11.312,0l-80,80c-3.128,3.128-3.128,8.184,0,11.312
			c1.56,1.56,3.608,2.344,5.656,2.344c2.048,0,4.096-0.784,5.656-2.344l80-80C384.342,314.519,384.342,309.463,381.214,306.335z"/>
	</g>
</g>
<g>
	<g>
		<path d="M493.214,418.335l-112-112c-3.128-3.128-8.184-3.128-11.312,0c-3.128,3.128-3.128,8.184,0,11.312l112,112
			c1.56,1.56,3.608,2.344,5.656,2.344c2.048,0,4.096-0.784,5.656-2.344C496.342,426.519,496.342,421.463,493.214,418.335z"/>
	</g>
</g>
<g>
	<g>
		<path d="M511.254,477.799l-16-56c-1.216-4.264-5.672-6.664-9.888-5.504c-4.256,1.216-6.712,5.648-5.504,9.888l16,56
			c1.008,3.52,4.208,5.808,7.688,5.808c0.736,0,1.472-0.104,2.2-0.304C510.006,486.471,512.462,482.039,511.254,477.799z"/>
	</g>
</g>
<g>
	<g>
		<path d="M343.558,247.991c-4.424,0-8,3.584-8,8v48c0,4.424,3.576,8,8,8s8-3.576,8-8v-48
			C351.558,251.575,347.982,247.991,343.558,247.991z"/>
	</g>
</g>
<g>
	<g>
		<path d="M303.558,327.991h-48c-4.424,0-8,3.576-8,8s3.576,8,8,8h48c4.424,0,8-3.576,8-8S307.982,327.991,303.558,327.991z"/>
	</g>
</g>
<g>
	<g>
		<path d="M443.558,63.991c-4.424,0-8,3.584-8,8s3.576,8,8,8c2.2,0,4,1.792,4,4s-1.8,4-4,4c-4.424,0-8,3.584-8,8s3.576,8,8,8
			c11.032,0,20-8.976,20-20S454.59,63.991,443.558,63.991z"/>
	</g>
</g>
<g>
	<g>
		<path d="M447.558,87.991c-4.424,0-8,3.584-8,8s3.576,8,8,8c4.416,0,8,3.592,8,8s-3.584,8-8,8c-4.424,0-8,3.584-8,8
			c0,4.416,3.576,8,8,8c13.24,0,24-10.768,24-24S460.79,87.991,447.558,87.991z"/>
	</g>
</g>
<g>
	<g>
		<path d="M447.558,87.991h-24c-4.424,0-8,3.584-8,8s3.576,8,8,8h24c4.424,0,8-3.584,8-8S451.982,87.991,447.558,87.991z"/>
	</g>
</g>
<g>
	<g>
		<path d="M447.558,119.991h-32c-4.424,0-8,3.584-8,8c0,4.416,3.576,8,8,8h32c4.424,0,8-3.584,8-8
			C455.558,123.575,451.982,119.991,447.558,119.991z"/>
	</g>
</g>
<g>
	<g>
		<path d="M443.558,63.991h-28c-4.424,0-8,3.584-8,8s3.576,8,8,8h28c4.424,0,8-3.584,8-8S447.982,63.991,443.558,63.991z"/>
	</g>
</g>
<g>
	<g>
		<path d="M423.558,63.991c-4.424,0-8,3.584-8,8v56c0,4.416,3.576,8,8,8s8-3.584,8-8v-56
			C431.558,67.575,427.982,63.991,423.558,63.991z"/>
	</g>
</g>
<g>
	<g>
		<path d="M431.558,55.991c-4.424,0-8,3.584-8,8v8c0,4.416,3.576,8,8,8s8-3.584,8-8v-8
			C439.558,59.575,435.982,55.991,431.558,55.991z"/>
	</g>
</g>
<g>
	<g>
		<path d="M431.558,119.991c-4.424,0-8,3.584-8,8v8c0,4.416,3.576,8,8,8s8-3.584,8-8v-8
			C439.558,123.575,435.982,119.991,431.558,119.991z"/>
	</g>
</g>
<g>
	<g>
		<path d="M435.558,23.991c-41.904,0-76,34.096-76,76s34.096,76,76,76c41.912,0,76-34.096,76-76S477.462,23.991,435.558,23.991z
			 M435.558,159.991c-33.088,0-60-26.912-60-60s26.912-60,60-60s60,26.912,60,60S468.646,159.991,435.558,159.991z"/>
	</g>
</g>
<g>
	<g>
		<path d="M503.558,123.991c-4.424,0-8,3.584-8,8c0,33.088-26.912,60-60,60s-60-26.912-60-60c0-4.416-3.576-8-8-8s-8,3.584-8,8
			c0,41.904,34.096,76,76,76c41.912,0,76-34.096,76-76C511.558,127.575,507.982,123.991,503.558,123.991z"/>
	</g>
</g>
<g>
	<g>
		<path d="M367.558,91.991c-4.424,0-8,3.584-8,8v32c0,4.416,3.576,8,8,8s8-3.584,8-8v-32
			C375.558,95.575,371.982,91.991,367.558,91.991z"/>
	</g>
</g>
<g>
	<g>
		<path d="M503.558,91.991c-4.424,0-8,3.584-8,8v32c0,4.416,3.576,8,8,8s8-3.584,8-8v-32
			C511.558,95.575,507.982,91.991,503.558,91.991z"/>
	</g>
</g>
<g>
	<g>
		<path d="M463.558,153.967c-4.424,0-8,3.584-8,8v32c0,4.416,3.576,8,8,8s8-3.584,8-8v-32
			C471.558,157.551,467.982,153.967,463.558,153.967z"/>
	</g>
</g>
<g>
	<g>
		<path d="M407.558,153.975c-4.424,0-8,3.584-8,8v31.992c0,4.416,3.576,8,8,8s8-3.584,8-8v-31.992
			C415.558,157.559,411.982,153.975,407.558,153.975z"/>
	</g>
</g>
<g>
	<g>
		<path d="M475.982,255.991c-19.848,0-36,16.152-36,36c0,19.848,16.152,36,36,36c19.848,0,36-16.152,36-36
			C511.982,272.143,495.83,255.991,475.982,255.991z M475.982,311.991c-11.032,0-20-8.968-20-20c0-11.032,8.968-20,20-20
			c11.032,0,20,8.968,20,20C495.982,303.023,487.014,311.991,475.982,311.991z"/>
	</g>
</g>
<g>
	<g>
		<path d="M503.982,307.991c-4.424,0-8,3.576-8,8c0,11.032-8.968,20-20,20c-11.032,0-20-8.968-20-20c0-4.424-3.576-8-8-8
			s-8,3.576-8,8c0,19.848,16.152,36,36,36c19.848,0,36-16.152,36-36C511.982,311.567,508.406,307.991,503.982,307.991z"/>
	</g>
</g>
<g>
	<g>
		<path d="M447.982,283.991c-4.424,0-8,3.576-8,8v24c0,4.424,3.576,8,8,8s8-3.576,8-8v-24
			C455.982,287.567,452.406,283.991,447.982,283.991z"/>
	</g>
</g>
<g>
	<g>
		<path d="M503.982,283.991c-4.424,0-8,3.576-8,8v24c0,4.424,3.576,8,8,8s8-3.576,8-8v-24
			C511.982,287.567,508.406,283.991,503.982,283.991z"/>
	</g>
</g>
<g>
	<g>
		<path d="M403.982,223.991c-15.44,0-28,12.56-28,28s12.56,28,28,28s28-12.56,28-28S419.422,223.991,403.982,223.991z
			 M403.982,263.991c-6.616,0-12-5.384-12-12c0-6.616,5.384-12,12-12c6.616,0,12,5.384,12,12
			C415.982,258.607,410.598,263.991,403.982,263.991z"/>
	</g>
</g>
<g>
	<g>
		<path d="M503.558,471.991h-320c-4.424,0-8,3.576-8,8s3.576,8,8,8h320c4.424,0,8-3.576,8-8S507.982,471.991,503.558,471.991z"/>
	</g>
</g>
<g>
</g>
<g>
</g>
<g>
</g>
<g>
</g>
<g>
</g>
<g>
</g>
<g>
</g>
<g>
</g>
<g>
</g>
<g>
</g>
<g>
</g>
<g>
</g>
<g>
</g>
<g>
</g>
<g>
</g>
</svg>
