<?xml version="1.0" encoding="iso-8859-1"?>
<!-- Generator: Adobe Illustrator 19.0.0, SVG Export Plug-In . SVG Version: 6.00 Build 0)  -->
<svg version="1.1" id="Capa_1" xmlns="http://www.w3.org/2000/svg" xmlns:xlink="http://www.w3.org/1999/xlink" x="0px" y="0px"
	 viewBox="0 0 480 480" style="enable-background:new 0 0 480 480;" xml:space="preserve">
<g>
	<g>
		<rect x="112" y="144" width="16" height="16"/>
	</g>
</g>
<g>
	<g>
		<rect x="336" y="144" width="16" height="16"/>
	</g>
</g>
<g>
	<g>
		<rect x="40" y="312" width="16" height="16"/>
	</g>
</g>
<g>
	<g>
		<rect x="40" y="280" width="16" height="16"/>
	</g>
</g>
<g>
	<g>
		<rect x="40" y="248" width="16" height="16"/>
	</g>
</g>
<g>
	<g>
		<path d="M448,216.808V184v-80c0-4.424-3.576-8-8-8h-66.824C350.816,39.848,296.024,0,232,0S113.184,39.848,90.824,96H48
			c-26.472,0-48,21.528-48,48v288c0,26.472,21.528,48,48,48h392c4.424,0,8-3.576,8-8v-96.808c18.232-3.72,32-19.872,32-39.192v-80
			C480,236.688,466.232,220.528,448,216.808z M448,233.384c9.312,3.288,16,12.184,16,22.616c0,1.512-0.176,2.976-0.448,4.408
			c-0.08,0.448-0.208,0.872-0.32,1.312c-0.24,0.984-0.536,1.952-0.896,2.888c-0.176,0.448-0.352,0.896-0.56,1.336
			c-0.432,0.936-0.928,1.84-1.472,2.712c-0.208,0.328-0.384,0.68-0.608,1c-0.8,1.152-1.68,2.24-2.664,3.232
			c-0.16,0.168-0.352,0.296-0.52,0.456c-0.848,0.808-1.752,1.56-2.712,2.24c-0.368,0.256-0.752,0.488-1.128,0.728
			c-0.848,0.528-1.72,1.008-2.632,1.432c-0.408,0.192-0.816,0.384-1.24,0.552c-0.256,0.104-0.544,0.16-0.8,0.248V233.384z M432,112
			v64h-49.984c0.088-0.544,0.12-1.088,0.2-1.632c0.448-2.936,0.808-5.864,1.08-8.776c0.096-1,0.184-2,0.264-3
			c0.264-3.552,0.44-7.096,0.44-10.592c0-4.432-0.272-8.856-0.672-13.272c-0.136-1.528-0.288-3.04-0.464-4.552
			c-0.352-2.888-0.8-5.76-1.32-8.632c-0.632-3.6-1.424-7.144-2.312-10.648c-0.248-0.968-0.432-1.936-0.704-2.896H432z
			 M96.632,139.552c0.208-2.2,0.544-4.4,0.864-6.592c0.24-1.696,0.472-3.392,0.776-5.072c0.536-2.912,1.176-5.816,1.904-8.704
			c0.192-0.784,0.392-1.56,0.6-2.344c0.88-3.256,1.864-6.504,2.992-9.72C122.368,54.144,172.752,16,232,16
			s109.632,38.144,128.232,91.112c1.128,3.224,2.112,6.464,2.992,9.72c0.208,0.776,0.408,1.56,0.6,2.344
			c0.728,2.896,1.368,5.792,1.904,8.704c0.304,1.68,0.536,3.376,0.776,5.072c0.32,2.2,0.656,4.392,0.864,6.592
			C367.744,143.656,368,147.8,368,152c0,4.512-0.312,9.104-0.808,13.712c-0.152,1.4-0.384,2.808-0.576,4.216
			c-0.28,2.016-0.672,4.04-1.04,6.064h-56.44c-4.784-13.48-15.304-24.04-28.44-28.952C290.08,138.28,296,125.832,296,112
			c0-26.472-21.528-48-48-48V48h-16v16h-16V48h-16v16h-8c-4.424,0-8,3.576-8,8v80v24H98.424c-0.368-2.024-0.76-4.048-1.04-6.064
			c-0.192-1.408-0.432-2.816-0.576-4.216C96.312,161.104,96,156.512,96,152C96,147.8,96.256,143.656,96.632,139.552z M248,160h16
			c11.632,0,22.112,6.344,27.712,16H200v-16H248z M200,144V80h48c17.648,0,32,14.352,32,32s-14.352,32-32,32H200z M48,112h37.472
			c-0.264,0.96-0.448,1.928-0.696,2.896c-0.888,3.512-1.68,7.048-2.312,10.648c-0.52,2.872-0.968,5.744-1.32,8.632
			c-0.176,1.512-0.336,3.024-0.464,4.552C80.272,143.144,80,147.568,80,152c0,3.496,0.176,7.04,0.44,10.592c0.072,1,0.168,2,0.264,3
			c0.272,2.92,0.632,5.84,1.08,8.776c0.08,0.544,0.112,1.08,0.2,1.632H48c-17.648,0-32-14.352-32-32S30.352,112,48,112z M432,464H56
			V344H40v118.864C26.232,459.288,16,446.872,16,432V179.752c0.144,0.128,0.312,0.216,0.456,0.336
			c1.864,1.632,3.856,3.12,5.96,4.448c0.336,0.216,0.672,0.416,1.016,0.616c2.16,1.296,4.424,2.44,6.784,3.384
			c0.328,0.128,0.656,0.24,0.984,0.36c2.448,0.92,4.976,1.672,7.6,2.184c0.232,0.048,0.472,0.064,0.712,0.112
			C42.272,191.696,45.096,192,48,192h43.696H192h111.192h69.112H432v32v56h-24v-16c0-4.424-3.576-8-8-8h-32c-4.424,0-8,3.576-8,8v16
			h-48c-2.432,0-4.728,1.104-6.248,3l-32,40c-2.336,2.92-2.336,7.08,0,10l32,40c1.52,1.896,3.816,3,6.248,3h48v16
			c0,4.424,3.576,8,8,8h32c4.424,0,8-3.576,8-8v-16h24V464z M392,272v16v80v16h-16v-16v-80v-16H392z M360,296v64h-44.16l-25.6-32
			l25.6-32H360z M464.008,336H464c0,13.232-10.768,24-24,24h-32v-64h32c2.544,0,5.008-0.296,7.424-0.752
			c0.76-0.144,1.48-0.376,2.224-0.56c1.64-0.408,3.248-0.888,4.8-1.496c0.792-0.312,1.552-0.648,2.32-1
			c1.472-0.688,2.88-1.456,4.248-2.304c0.672-0.416,1.352-0.816,1.992-1.272c0.32-0.224,0.68-0.4,1-0.632V336z"/>
	</g>
</g>
<g>
	<g>
		<rect x="400" y="432" width="16" height="16"/>
	</g>
</g>
<g>
</g>
<g>
</g>
<g>
</g>
<g>
</g>
<g>
</g>
<g>
</g>
<g>
</g>
<g>
</g>
<g>
</g>
<g>
</g>
<g>
</g>
<g>
</g>
<g>
</g>
<g>
</g>
<g>
</g>
</svg>
